<svg xmlns="http://www.w3.org/2000/svg" width="614.951" height="46.92" viewBox="0 0 162.706 12.414">
<style>@media (prefers-color-scheme: dark) { g { fill: #fff; } }</style>
<g aria-label="🯰 🯱 🯲 🯳 🯴 🯵 🯶 🯷 🯸 🯹" style="stroke-width:.264583"><path d="M1.46 10.922h4.144c.333.413.698.889 1.032 1.302.047.047.08.08.08.11 0 .048-.049.08-.16.08H.444c-.11-.143-.222-.27-.333-.413-.048-.047-.111-.095-.111-.174v-.016zM.476 6.128l1.175.825-.19 3.7L0 11.445.254 6.62c.048-.159.175-.334.222-.492zM.556 1l1.365.89-.19 3.142-1.255.746-.174-.38zm1.159-1 5.699.08-1.445 1.428H1.921L.65.714zm5.08 6.223.54.603-.302 4.572-.286.413-1.048-1.254.19-3.604zM7.588.286c.032.08.08.174.08.254-.08 1.571-.175 3.08-.254 4.651l-.556.587-.889-.666.19-3.398zM24.02 6.223l.54.603-.3 4.572-.287.413-1.047-1.254.19-3.604zm.795-5.937c.031.08.08.174.08.254-.08 1.571-.176 3.08-.255 4.651l-.556.587-.889-.666.19-3.398zM35.913 10.922h4.144c.333.413.698.889 1.032 1.302.047.047.079.08.079.11 0 .048-.048.08-.159.08h-6.112c-.11-.143-.222-.27-.333-.413-.048-.047-.111-.095-.111-.174v-.016zm-.984-4.794 1.175.825-.19 3.7-1.461.793.254-4.826c.048-.159.175-.334.222-.492zM36.167 0l5.7.08-1.445 1.428h-4.048l-1.27-.794zm.27 5.239h3.7l1.031.81-1.016.698h-3.937c-.333-.302-.714-.54-1.048-.81zM42.041.286c.032.08.08.174.08.254-.08 1.571-.175 3.08-.254 4.651l-.556.587-.89-.666.191-3.398zM53.14 10.922h4.143c.334.413.699.889 1.032 1.302.048.047.08.08.08.11 0 .048-.048.08-.16.08h-6.111c-.111-.143-.222-.27-.334-.413-.047-.047-.11-.095-.11-.174v-.016zM53.394 0l5.699.08-1.445 1.428H53.6L52.33.714zm.27 5.239h3.699l1.031.81-1.016.698h-3.937c-.333-.302-.714-.54-1.047-.81zm4.81.984.54.603-.302 4.572-.286.413-1.048-1.254.191-3.604zm.794-5.937c.031.08.079.174.079.254-.08 1.571-.175 3.08-.254 4.651l-.556.587-.889-.666.19-3.398zM69.461 1l1.366.89-.19 3.142-1.255.746-.175-.38zm1.43 4.239h3.698l1.032.81-1.016.698h-3.937c-.333-.302-.714-.54-1.048-.81zm4.81.984.539.603-.302 4.572-.285.413-1.048-1.254.19-3.604zm.793-5.937c.032.08.08.174.08.254-.08 1.571-.175 3.08-.255 4.651l-.555.587-.89-.666.191-3.398zM92.943 6.207l.508.603-.302 4.588-.27.413-1.048-1.238.207-3.62zM88.1 5.24H91.8l1.047.81-1.016.682h-3.937c-.349-.286-.698-.524-1.047-.794zM87.847.016l5.683.047-1.429 1.445H88.07l-1.27-.81zM86.687 1l1.366.873-.175 3.16-1.27.745-.158-.396zm.89 9.922h4.16c.332.429.713.873 1.047 1.302.047.047.08.08.08.11 0 .048-.064.08-.175.08h-6.112c-.111-.127-.222-.27-.334-.397-.047-.063-.127-.11-.127-.19v-.032zM104.803 10.922h4.16c.333.429.714.873 1.047 1.302.048.047.08.08.08.11 0 .048-.064.08-.175.08h-6.112c-.11-.127-.222-.27-.333-.397-.048-.063-.127-.11-.127-.19v-.032zM103.914 1l1.366.873-.175 3.16-1.27.745-.159-.396zm1.16-.984 5.682.047-1.428 1.445h-4.033l-1.27-.81zm.253 5.223h3.7l1.047.81-1.016.682h-3.937c-.35-.286-.699-.524-1.048-.794zm4.842.968.508.603-.302 4.588-.27.413-1.047-1.238.206-3.62zm-6.35-.063 1.19.81-.19 3.698-1.46.81.254-4.842c.063-.159.143-.318.206-.476zM122.3 0l5.699.08-1.445 1.428h-4.048l-1.27-.794zm5.08 6.223.54.603-.302 4.572-.286.413-1.048-1.254.19-3.604zm.793-5.937c.032.08.08.174.08.254-.08 1.571-.175 3.08-.254 4.651l-.556.587-.889-.666.19-3.398zM139.272 10.922h4.143c.334.413.699.889 1.032 1.302.048.047.08.08.08.11 0 .048-.048.08-.159.08h-6.112c-.111-.143-.222-.27-.333-.413-.048-.047-.111-.095-.111-.174v-.016zm-.984-4.794 1.175.825-.19 3.7-1.461.793.254-4.826c.047-.159.174-.334.222-.492zm.08-5.128 1.364.89-.19 3.142-1.254.746-.175-.38zm1.158-1 5.7.08-1.445 1.428h-4.049l-1.27-.794zm.27 5.239h3.699l1.032.81-1.016.698h-3.937c-.334-.302-.715-.54-1.048-.81zm4.81.984.54.603-.302 4.572-.286.413-1.047-1.254.19-3.604zM145.4.286c.032.08.08.174.08.254-.08 1.571-.175 3.08-.255 4.651l-.555.587-.89-.666.191-3.398zM156.499 10.922h4.143c.333.413.698.889 1.032 1.302.047.047.08.08.08.11 0 .048-.048.08-.16.08h-6.111c-.112-.143-.223-.27-.334-.413-.047-.047-.11-.095-.11-.174v-.016zM155.594 1l1.365.89-.19 3.142-1.255.746-.174-.38zm1.159-1 5.699.08-1.445 1.428h-4.048l-1.27-.794zm.27 5.239h3.698l1.032.81-1.016.698H156.8c-.333-.302-.714-.54-1.048-.81zm4.81.984.54.603-.302 4.572-.286.413-1.048-1.254.19-3.604zm.793-5.937c.032.08.08.174.08.254-.08 1.571-.175 3.08-.254 4.651l-.556.587-.889-.666.19-3.398z"/></g></svg>
